<?xml version="1.0" standalone="no"?>
<!DOCTYPE svg PUBLIC "-//W3C//DTD SVG 20010904//EN"
 "http://www.w3.org/TR/2001/REC-SVG-20010904/DTD/svg10.dtd">
<svg version="1.0" xmlns="http://www.w3.org/2000/svg"
 width="882.000000pt" height="882.000000pt" viewBox="0 0 882.000000 882.000000"
 preserveAspectRatio="xMidYMid meet">
<metadata>
Created by potrace 1.11, written by Peter Selinger 2001-2013
</metadata>
<g transform="translate(0.000000,882.000000) scale(0.100000,-0.100000)"
fill="#000000" stroke="none">
<path d="M3368 8815 c-2 -1 -86 -5 -188 -9 -102 -4 -212 -9 -245 -11 -135 -8
-252 -16 -280 -20 -16 -2 -57 -7 -90 -10 -65 -7 -117 -13 -180 -21 -41 -5 -55
-7 -135 -19 -25 -4 -56 -8 -70 -10 -75 -10 -212 -31 -260 -40 -14 -2 -45 -7
-70 -10 -25 -4 -67 -11 -95 -17 -27 -5 -63 -12 -80 -14 -206 -33 -734 -152
-778 -175 -69 -37 -107 -111 -122 -242 -3 -23 -7 -53 -10 -67 -3 -14 -7 -54
-10 -90 -3 -36 -8 -81 -10 -100 -7 -63 -19 -243 -32 -465 -10 -185 -10 -1073
0 -1245 9 -166 20 -297 33 -405 3 -27 7 -70 9 -95 4 -59 10 -104 40 -325 1
-11 6 -44 10 -74 3 -30 9 -63 11 -75 6 -32 12 -67 19 -111 3 -23 8 -52 10 -65
3 -14 8 -38 10 -55 23 -129 67 -342 102 -485 14 -58 26 -112 28 -120 2 -8 15
-58 30 -110 15 -52 29 -104 32 -115 16 -61 71 -237 110 -350 24 -71 45 -137
47 -145 7 -26 90 -242 141 -365 238 -574 607 -1212 952 -1645 24 -30 50 -62
56 -70 229 -292 610 -691 918 -960 41 -36 79 -69 85 -75 6 -5 28 -23 49 -40
21 -16 52 -42 69 -56 116 -97 537 -389 673 -465 61 -35 75 -39 138 -39 65 0
79 4 177 53 59 29 124 65 144 79 21 14 52 33 68 42 101 56 551 360 576 390 3
3 28 24 55 46 151 119 327 278 524 475 176 175 251 256 396 425 33 39 62 72
65 75 18 16 212 265 297 380 119 161 314 455 385 580 59 103 74 131 144 265
226 435 432 964 593 1520 42 148 120 449 142 550 7 33 14 65 15 70 1 6 11 53
23 105 20 92 25 119 36 178 3 15 12 61 19 102 8 41 17 93 21 115 4 22 9 49 11
60 12 71 44 278 49 315 2 25 7 61 9 80 3 19 8 58 11 85 4 28 8 61 10 75 2 14
7 54 10 90 3 36 8 72 10 80 3 13 10 96 21 245 3 54 14 285 20 420 2 61 7 371
10 691 6 565 6 582 -14 626 -24 55 -62 92 -116 111 -33 12 -316 82 -411 102
-11 2 -85 18 -165 35 -80 17 -179 37 -220 45 -41 8 -88 17 -105 20 -47 9 -148
27 -170 30 -11 2 -72 12 -135 24 -63 11 -133 22 -155 26 -23 3 -50 7 -61 9
-12 2 -45 7 -75 11 -30 3 -61 8 -69 10 -8 2 -37 6 -65 10 -27 3 -61 7 -75 10
-14 2 -41 6 -60 9 -19 3 -73 10 -120 16 -47 7 -96 13 -110 15 -14 1 -43 5 -65
8 -22 4 -65 9 -95 13 -30 3 -68 7 -85 9 -98 12 -240 26 -300 30 -38 3 -90 7
-115 10 -25 3 -85 7 -135 10 -163 8 -339 17 -430 21 -105 5 -1402 13 -1407 9z"/>
</g>
</svg>
